# xmcd CD database file
#
# Track frame offsets:
#	150
#	29215
#	60807
#	83225
#	104627
#	128205
#	149235
#	165135
#	192377
#	205637
#	222070
#	244732
#
# Disc length: 3463 seconds
#
# Revision: 15
# Processed by: cddbd v1.5.1PL0 Copyright (c) Steve Scherf et al.
# Submitted via: CDex 1.51
#
DISCID=ac0d850c
DTITLE=小沢健二 - Eclectic
DYEAR=2002
DGENRE=Techno
TTITLE0=ギターを弾く女
TTITLE1=愛について
TTITLE2=麝香
TTITLE3=あらし
TTITLE4=1つの魔法 (終わりのない愛しさを与え)
TTITLE5=∞ (infinity)
TTITLE6=欲望
TTITLE7=今夜はブギーバック/あの大きな心
TTITLE8=bassline
TTITLE9=光と風があなたに恵むように
TTITLE10=甘い旋律
TTITLE11=踊る月夜の前に
EXTD=YEAR: 2002
EXTT0=
EXTT1=
EXTT2=
EXTT3=
EXTT4=
EXTT5=
EXTT6=
EXTT7=
EXTT8=
EXTT9=
EXTT10=
EXTT11=
PLAYORDER=
